<svg id="Capa_1" enable-background="new 0 0 512 512" height="512" viewBox="0 0 512 512" width="512" xmlns="http://www.w3.org/2000/svg"><g><g><path d="m196 481h-181c-8.284 0-15-6.716-15-15v-30c0-8.284 6.716-15 15-15h181c8.284 0 15 6.716 15 15v30c0 8.284-6.716 15-15 15z"/></g><path d="m166 166v90c0 8.28 6.72 15 15 15h60v45c0 8.28-6.72 15-15 15-24.81 0-45 20.19-45 45v15h-150v-165c0-8.28 6.72-15 15-15 24.81 0 45-20.19 45-45v-45c0-8.28 6.72-15 15-15h120c8.28 0 15 6.72 15 15v30h-60c-8.28 0-15 6.72-15 15z"/><path d="m481 226v165h-150v-15c0-24.81-20.19-45-45-45-8.28 0-15-6.72-15-15v-45h60c8.28 0 15-6.72 15-15v-90c0-8.28-6.72-15-15-15h-60v-30c0-8.28 6.72-15 15-15h120c8.28 0 15 6.72 15 15v45c0 24.81 20.19 45 45 45 8.28 0 15 6.72 15 15z"/><g><path d="m497 481h-181c-8.284 0-15-6.716-15-15v-30c0-8.284 6.716-15 15-15h181c8.284 0 15 6.716 15 15v30c0 8.284-6.716 15-15 15z"/></g><path d="m211 46v30h-90v-30c0-8.28 6.72-15 15-15h60c8.28 0 15 6.72 15 15z"/><path d="m391 46v30h-90v-30c0-8.28 6.72-15 15-15h60c8.28 0 15 6.72 15 15z"/><g><path d="m196 181h120v60h-120z"/></g></g></svg>